# xmcd
#
# Track frame offsets:
#	150
#	15414
#	31209
#	44994
#	58959
#	73099
#	87095
#	100902
#	118869
#	132128
#	143930
#	157419
#	164489
#	177614
#
# Disc length: 2514 seconds
#
# Revision: 0
# Processed by: cddbd v1.5.2PL0 Copyright (c) Steve Scherf et al.
# Submitted via: EasyCDDAExtractor 16.0.6.1
#
DISCID=d409d00e
DTITLE=Συλλογικός δίσκος - Τα γλεντζέδικα
DYEAR=1900
DGENRE=Ποικίλη
TTITLE0=Παπαδοπούλου Πίτσα - Έχεις κορμί αράπικο [Στ. Καζαντζίδης-Χρ. Κολοκοτρ
TTITLE0=ώνης]
TTITLE1=Ευδοκία - Ανέβα στο τραπέζι [Μπ. Μπακάλη-Κ. Βίρβου]
TTITLE2=Ευδοκία - Έξω ντέρτια και καϋμοί [Στ. Καζαντζίδης]
TTITLE3=Μπλανς Μπέμπα - Άναψε το τσιγάρο [Γ. Κλουβάτος-Χαρ. Βασιλειάδης]
TTITLE4=Καβουράκης Θεόδωρος - Τέτοια κούκλα και τσαχπίνα [Χρ. Κολοκοτρώνης]
TTITLE5=Γκρέϋ Καίτη - Κάτσε στον καναπέ μου [Στ. Χρυσίνης-Χαρ. Βασιλειάδης]
TTITLE6=Ντάλια Ρένα-Τατασσόπουλος Γιάννης - Σήκω χόρεψε κουκλί μου [Στ. Καζαντ
TTITLE6=ζίδης]
TTITLE7=Τατασσόπουλος Γιάννης - Το κορίτσι απόψε θέλει [Γ. Τατασσόπουλος-Χρ. Κ
TTITLE7=ολοκοτρώνης]
TTITLE8=Πάνου Πόλυ - Άλλα μού λέν' τα μάτια σου [Θ. Δερβενιώτης-Κ. Μάνεσης]
TTITLE9=Ντάλια Ρένα-Παπαϊωάννου Γιάννης - Μη μού λες πως, δεν πονάω [Κ. Σκαρβέ
TTITLE9=λης]
TTITLE10=Ντάλια Ρένα-Παπαϊωάννου Γιάννης - Καραμπιμπερίμ [Γ. Παπαϊωάννου]
TTITLE11=Μπλανς Μπέμπα - Βαλεντίνα [Γ. Μητσάκης]
TTITLE12=Πάνου Πόλυ - Χωρισμός [Γ. Ζαμπέτας-Δ. Χριστοδούλου]
TTITLE13=Κλωναρίδης Ηλίας - Έχω στενάχωρη καρδιά [Μ. Πλέσσας-Γ. Δαλιανίδης]
EXTD=
EXTT0=
EXTT1=
EXTT2=
EXTT3=
EXTT4=
EXTT5=
EXTT6=
EXTT7=
EXTT8=
EXTT9=
EXTT10=
EXTT11=
EXTT12=
EXTT13=
PLAYORDER=
